<svg width="325" height="139" viewBox="0 0 325 139" fill="none" xmlns="http://www.w3.org/2000/svg">
<path d="M3.072 50.424C3.072 47.48 3.968 45.208 5.76 43.608C7.616 41.944 9.984 41.112 12.864 41.112C15.872 41.112 18.272 41.944 20.064 43.608C21.856 45.208 22.752 47.48 22.752 50.424V91.32C22.752 92.536 23.072 93.4 23.712 93.912C24.352 94.36 25.408 94.168 26.88 93.336C30.08 91.48 32.928 90.008 35.424 88.92C37.92 87.768 40.672 87.192 43.68 87.192C47.84 87.192 50.976 88.28 53.088 90.456C55.2 92.632 56.256 95.48 56.256 99C56.256 102.776 55.104 105.688 52.8 107.736C50.56 109.784 46.944 110.808 41.952 110.808H22.176C17.952 110.808 14.432 110.328 11.616 109.368C8.8 108.344 6.656 106.52 5.184 103.896C3.776 101.272 3.072 97.464 3.072 92.472V50.424Z" fill="#2D2A26"/>
<path d="M78 53C89.0457 53 98 61.9543 98 73C98 84.0457 89.0457 93 78 93C66.9543 93 58 84.0457 58 73C58 61.9543 66.9543 53 78 53ZM73.2002 84.2002C71.8748 84.2002 70.8 85.2743 70.7998 86.5996C70.7998 87.9251 71.8747 89 73.2002 89C74.5256 88.9999 75.5996 87.925 75.5996 86.5996C75.5994 85.2744 74.5255 84.2003 73.2002 84.2002ZM67.5996 76.2002C65.3906 76.2004 63.5996 77.9912 63.5996 80.2002C63.5997 82.4091 65.3907 84.2 67.5996 84.2002C69.8087 84.2002 71.5995 82.4092 71.5996 80.2002C71.5996 77.9911 69.8087 76.2002 67.5996 76.2002ZM84.4004 57C79.9821 57 76.4004 60.5817 76.4004 65C76.4004 69.4183 79.9821 73 84.4004 73C88.8185 72.9998 92.4004 69.4181 92.4004 65C92.4004 60.5819 88.8185 57.0002 84.4004 57Z" fill="#2D2A26"/>
<path d="M122 53C133.046 53 142 61.9543 142 73C142 84.0457 133.046 93 122 93C110.954 93 102 84.0457 102 73C102 61.9543 110.954 53 122 53ZM117.2 84.2002C115.875 84.2002 114.8 85.2743 114.8 86.5996C114.8 87.9251 115.875 89 117.2 89C118.526 88.9999 119.6 87.925 119.6 86.5996C119.599 85.2744 118.525 84.2003 117.2 84.2002ZM111.601 76.2002C109.391 76.2002 107.601 77.9911 107.601 80.2002C107.601 82.4092 109.392 84.2002 111.601 84.2002C113.809 84.1999 115.6 82.4091 115.601 80.2002C115.601 77.9912 113.81 76.2005 111.601 76.2002ZM128.4 57C123.982 57 120.4 60.5817 120.4 65C120.4 69.4183 123.982 73 128.4 73C132.818 72.9997 136.4 69.4181 136.4 65C136.4 60.5819 132.818 57.0003 128.4 57Z" fill="#2D2A26"/>
<path d="M99.9983 111C103.802 111 110.224 110.091 110.869 102.275C110.922 101.63 110.312 101.146 109.68 101.289C102.141 102.992 97.7137 102.949 90.3036 101.283C89.6772 101.142 89.0713 101.618 89.1168 102.258C89.6732 110.095 96.1914 111 99.9983 111Z" fill="#2D2A26" stroke="#2D2A26" stroke-width="4" stroke-linecap="round"/>
<path d="M153.616 111C150.736 111 148.432 110.168 146.704 108.504C145.04 106.776 144.208 104.664 144.208 102.168V70.392C144.208 67.704 145.008 65.432 146.608 63.576C148.272 61.72 150.608 60.792 153.616 60.792C156.56 60.792 158.768 61.72 160.24 63.576C161.712 65.432 162.448 67.768 162.448 70.584V75.384H164.176C164.176 69.944 165.328 66.168 167.632 64.056C169.936 61.88 172.784 60.792 176.176 60.792C180.528 60.792 183.728 62.136 185.776 64.824C187.824 67.512 188.848 71.032 188.848 75.384H190.576C190.576 71.736 191.184 68.856 192.4 66.744C193.616 64.632 195.152 63.128 197.008 62.232C198.928 61.272 200.912 60.792 202.96 60.792C207.12 60.792 210.16 61.784 212.08 63.768C214.064 65.752 215.344 68.408 215.92 71.736C216.496 75.064 216.784 78.808 216.784 82.968V102.168C216.784 104.664 215.92 106.776 214.192 108.504C212.528 110.168 210.288 111 207.472 111C204.656 111 202.384 110.168 200.656 108.504C198.928 106.776 198.064 104.664 198.064 102.168V85.176C198.064 82.872 197.776 81.08 197.2 79.8C196.624 78.52 195.472 77.88 193.744 77.88C191.888 77.88 190.672 78.584 190.096 79.992C189.584 81.4 189.328 83.192 189.328 85.368V102.168C189.328 104.664 188.528 106.776 186.928 108.504C185.328 110.168 183.12 111 180.304 111C177.424 111 175.12 110.168 173.392 108.504C171.728 106.776 170.896 104.664 170.896 102.168V85.176C170.896 82.872 170.608 81.08 170.032 79.8C169.456 78.52 168.336 77.88 166.672 77.88C164.816 77.88 163.632 78.584 163.12 79.992C162.672 81.4 162.448 83.192 162.448 85.368V102.168C162.448 104.664 161.68 106.776 160.144 108.504C158.608 110.168 156.432 111 153.616 111ZM235.956 111C231.22 111 227.508 109.72 224.82 107.16C222.196 104.6 220.884 101.016 220.884 96.408C220.884 91.8 222.42 88.472 225.492 86.424C228.564 84.312 232.5 83.256 237.3 83.256C240.116 83.256 242.676 83.448 244.98 83.832C247.284 84.216 249.364 84.76 251.22 85.464H251.508V84.024C251.508 82.552 250.964 81.4 249.876 80.568C248.788 79.672 247.412 79.256 245.748 79.32C244.148 79.32 242.772 79.416 241.62 79.608C240.532 79.8 239.156 80.12 237.492 80.568C234.42 81.336 231.764 81.272 229.524 80.376C227.284 79.48 225.748 77.72 224.916 75.096C224.148 72.344 224.308 70.04 225.396 68.184C226.548 66.328 228.276 64.888 230.58 63.864C232.564 62.904 234.772 62.104 237.204 61.464C239.7 60.824 242.388 60.504 245.268 60.504C253.652 60.504 259.796 62.552 263.7 66.648C267.668 70.68 269.652 77.464 269.652 87V101.88C269.652 104.504 268.852 106.68 267.252 108.408C265.652 110.136 263.444 111 260.628 111C257.556 111 255.252 110.136 253.716 108.408C252.244 106.68 251.508 104.568 251.508 102.072V99.864H249.588C249.588 101.528 249.268 103.224 248.628 104.952C248.052 106.68 246.804 108.12 244.884 109.272C243.028 110.424 240.052 111 235.956 111ZM236.916 89.976C236.916 91.064 237.3 91.832 238.068 92.28C238.9 92.728 240.66 92.952 243.348 92.952C245.78 92.952 247.476 92.728 248.436 92.28C249.396 91.832 249.876 91.064 249.876 89.976C249.876 88.952 249.396 88.248 248.436 87.864C247.476 87.416 245.78 87.192 243.348 87.192C240.66 87.192 238.9 87.416 238.068 87.864C237.3 88.248 236.916 88.952 236.916 89.976ZM283.743 111C280.927 111 278.687 110.168 277.023 108.504C275.423 106.776 274.623 104.664 274.623 102.168V46.584C274.623 43.896 275.423 41.624 277.023 39.768C278.687 37.912 281.023 36.984 284.031 36.984C286.975 36.984 289.183 37.912 290.655 39.768C292.191 41.624 292.959 43.928 292.959 46.68V75.384H294.687C294.687 71.736 295.327 68.856 296.607 66.744C297.951 64.632 299.647 63.128 301.695 62.232C303.807 61.272 305.951 60.792 308.127 60.792C311.967 60.792 314.879 61.752 316.863 63.672C318.911 65.528 320.287 68.024 320.991 71.16C321.759 74.296 322.143 77.72 322.143 81.432V102.168C322.143 104.792 321.279 106.936 319.551 108.6C317.887 110.2 315.647 111 312.831 111C309.951 111 307.679 110.2 306.015 108.6C304.351 106.936 303.519 104.792 303.519 102.168V85.176C303.519 82.872 303.071 81.08 302.175 79.8C301.279 78.52 299.967 77.88 298.239 77.88C296.511 77.88 295.199 78.584 294.303 79.992C293.407 81.4 292.959 83.192 292.959 85.368V102.168C292.959 104.664 292.127 106.776 290.463 108.504C288.863 110.168 286.623 111 283.743 111Z" fill="#2D2A26"/>
</svg>
